<?xml version="1.0" encoding="UTF-8" standalone="no"?>
<svg
   xmlns:dc="http://purl.org/dc/elements/1.1/"
   xmlns:cc="http://creativecommons.org/ns#"
   xmlns:rdf="http://www.w3.org/1999/02/22-rdf-syntax-ns#"
   xmlns:svg="http://www.w3.org/2000/svg"
   xmlns="http://www.w3.org/2000/svg"
   viewBox="0 0 438.71997 314.56"
   height="314.56"
   width="438.71997"
   xml:space="preserve"
   id="svg2"
   version="1.1"><metadata
     id="metadata8"><rdf:RDF><cc:Work
         rdf:about=""><dc:format>image/svg+xml</dc:format><dc:type
           rdf:resource="http://purl.org/dc/dcmitype/StillImage" /></cc:Work></rdf:RDF></metadata><defs
     id="defs6"><clipPath
       id="clipPath18"
       clipPathUnits="userSpaceOnUse"><path
         style="clip-rule:evenodd"
         id="path16"
         d="M 0,0 H 1370.8333 V 980.02551 H 0 Z" /></clipPath></defs><g
     transform="matrix(0.31999998,0,0,0.31999998,0,7.8639999e-6)"
     id="g10"><g
       id="g12"><g
         clip-path="url(#clipPath18)"
         id="g14"><g
           transform="scale(3.0062132)"
           id="g20"><path
             id="path22"
             style="fill:#999999;fill-opacity:1;fill-rule:nonzero;stroke:none"
             d="m 226.21001,318 v -6 h 2 v 6 m -2,-12 v -6 h 2 v 6 m -2,-12 v -6 h 2 v 6 m -2,-12 v -6 h 2 v 6 m -2,-12 v -6 h 2 v 6 m -2,-12 v -6 h 2 v 6 m -2,-12 v -6 h 2 v 6 m -2,-12 v -6 h 2 v 6 m -2,-12 v -6 h 2 v 6 m -2,-12 v -6 h 2 v 6 m -2,-12 v -6 h 2 v 6 m -2,-12 v -6 h 2 v 6 m -2,-12 v -6 h 2 v 6 m -2,-12 v -6 h 2 v 6 m -2,-12 v -6 h 2 v 6 m -2,-12 v -6 h 2 v 6 m -2,-12 v -6 h 2 v 6 m -2,-12 v -6 h 2 v 6 m -2,-12 v -6 h 2 v 6 m -2,-12 v -6 h 2 v 6 m -2,-12 v -6 h 2 v 6 m -2,-12 v -6 h 2 v 6 m -2,-12 v -6 h 2 v 6 m -2,-12 v -6 h 2 v 6 m -2,-12 v -6 h 2 v 6 m -2,-12 v -6 h 2 v 6" /><text
             id="text26"
             style="font-variant:normal;font-weight:bold;font-size:9px;font-family:Verdana;-inkscape-font-specification:Verdana-Bold;writing-mode:lr-tb;fill:#000000;fill-opacity:1;fill-rule:nonzero;stroke:none"
             transform="translate(165.46875,301)"><tspan
               id="tspan24"
               y="0"
               x="0 5.8535156 11.865234 14.941406 19.415039 26.885742 32.862305 40.333008 46.744629">FairDeDup</tspan></text>
<text
             id="text30"
             style="font-variant:normal;font-weight:bold;font-size:6px;font-family:Verdana;-inkscape-font-specification:Verdana-Bold;writing-mode:lr-tb;fill:#000000;fill-opacity:1;fill-rule:nonzero;stroke:none"
             transform="translate(171.75,310)"><tspan
               id="tspan28"
               y="0"
               x="0 3.2607422 7.5263672 11.791992 19.423828 21.474609 26.455078 30.462891 33.196289 37.204102">(50% Data)</tspan></text>
</g><g
           transform="matrix(3.0062132,0,0,3.0062132,1.5031066,1.5031066)"
           id="g32"><path
             id="path34"
             style="fill:#000000;fill-opacity:1;fill-rule:nonzero;stroke:none"
             d="M 26.959999,239.45 H 24.620001 V 107.72 H 22.68 l 3.110001,-7.27 3.109999,7.27 h -1.940001 z" /><path
             id="path36"
             style="fill:none;stroke:#000000;stroke-width:1;stroke-linecap:butt;stroke-linejoin:miter;stroke-miterlimit:10;stroke-dasharray:none;stroke-opacity:1"
             d="M 26.959999,239.45 H 24.620001 V 107.72 H 22.68 l 3.110001,-7.27 3.109999,7.27 h -1.940001 z" /></g><g
           transform="matrix(0,-3.0062132,3.0062132,0,-456.82413,554.28558)"
           id="g38"><text
             id="text42"
             style="font-variant:normal;font-weight:normal;font-size:10px;font-family:Verdana;-inkscape-font-specification:Verdana;writing-mode:lr-tb;fill:#000000;fill-opacity:1;fill-rule:nonzero;stroke:none"
             transform="translate(-28.375,172)"><tspan
               id="tspan40"
               y="0"
               x="0 4.9902344 10.996094 16.206055 22.124023 25.639648 31.425781 37.382812 41.650391 45.166016 51.235352 55.50293 65.229492 71.235352 77.563477 82.773438">Task Performance</tspan></text>
</g><g
           transform="matrix(3.0062132,0,0,3.0062132,1.5031066,1.5031066)"
           id="g44"><path
             id="path46"
             style="fill:#e6e6e6;fill-opacity:1;fill-rule:nonzero;stroke:none"
             d="M 32.209999,38 H 102.21 V 318 H 32.209999 Z" /><path
             id="path48"
             style="fill:#000000;fill-opacity:1;fill-rule:nonzero;stroke:none"
             d="m 77,62.5 h 3 v 1 h -3 m 6,-1 h 3 v 1 h -3 m 6,-1 h 3 v 1 h -3 m 6,-1 h 3 v 1 h -3 m 6,-1 h 3 v 1 h -3 m 6,-1 h 3 v 1 h -3 m 6,-1 h 3 v 1 h -3 m 6,-1 h 3 v 1 h -3 m 6,-1 h 3 v 1 h -3 m 6,-1 h 3 v 1 h -3 m 6,-1 h 3 v 1 h -3 m 6,-1 h 3 v 1 h -3 m 6,-1 h 3 v 1 h -3 m 6,-1 h 3 v 1 h -3 m 6,-1 h 3 v 1 h -3 m 6,-1 h 3 v 1 h -3 m 6,-1 h 3 v 1 h -3 m 6,-1 h 3 v 1 h -3 m 6,-1 h 3 v 1 h -3 m 6,-1 h 3 v 1 h -3 m 6,-1 h 3 v 1 h -3" /></g><g
           transform="scale(3.0062132)"
           id="g50"><text
             id="text54"
             style="font-variant:normal;font-weight:normal;font-size:10px;font-family:Verdana;-inkscape-font-specification:Verdana;writing-mode:lr-tb;fill:#000000;fill-opacity:1;fill-rule:nonzero;stroke:none"
             transform="translate(74.484375,19)"><tspan
               id="tspan52"
               y="0"
               x="0 6.5576172 12.514648 16.782227 22.851562 27.294922 34.130859 40.458984 46.52832 50.46875 53.984375 58.193359 67.919922 73.925781 80.15625 86.113281 93.59375 99.550781 103.49121">Zero-Shot ImageNet </tspan></text>
<text
             id="text58"
             style="font-variant:normal;font-weight:normal;font-size:10px;font-family:Verdana;-inkscape-font-specification:Verdana;writing-mode:lr-tb;fill:#000000;fill-opacity:1;fill-rule:nonzero;stroke:none"
             transform="translate(88.609375,31)"><tspan
               id="tspan56"
               y="0"
               x="0 4.5410156 11.376953 16.586914 21.796875 28.125 32.216797 38.222656 43.432617 49.350586 59.350586 65.708008">(Accuracy@5 </tspan></text>
<text
             id="text62"
             style="font-variant:normal;font-weight:normal;font-size:10px;font-family:TimesNewRomanPSMT;-inkscape-font-specification:TimesNewRomanPSMT;writing-mode:lr-tb;fill:#000000;fill-opacity:1;fill-rule:nonzero;stroke:none"
             transform="translate(157.83301,31)"><tspan
               id="tspan60"
               y="0"
               x="0">↑</tspan></text>
<text
             id="text66"
             style="font-variant:normal;font-weight:normal;font-size:10px;font-family:Verdana;-inkscape-font-specification:Verdana;writing-mode:lr-tb;fill:#000000;fill-opacity:1;fill-rule:nonzero;stroke:none"
             transform="translate(162.83301,31)"><tspan
               id="tspan64"
               y="0"
               x="0">)</tspan></text>
<text
             id="text70"
             style="font-variant:normal;font-weight:normal;font-size:9px;font-family:Verdana;-inkscape-font-specification:Verdana;writing-mode:lr-tb;fill:#000000;fill-opacity:1;fill-rule:nonzero;stroke:none"
             transform="translate(105.59375,301)"><tspan
               id="tspan68"
               y="0"
               x="0 6.1523438 11.513672 20.267578 27.202148 32.563477 39.498047 45.193359">SemDeDup</tspan></text>
<text
             id="text74"
             style="font-variant:normal;font-weight:normal;font-size:6px;font-family:Verdana;-inkscape-font-specification:Verdana;writing-mode:lr-tb;fill:#000000;fill-opacity:1;fill-rule:nonzero;stroke:none"
             transform="translate(113.07813,310)"><tspan
               id="tspan72"
               y="0"
               x="0 2.7246094 6.5390625 10.353516 16.810547 18.919922 23.542969 27.146484 29.510742 33.114258">(50% Data)</tspan></text>
</g><g
           transform="matrix(3.0062132,0,0,3.0062132,1.5031066,1.5031066)"
           id="g76"><path
             id="path78"
             style="fill:#e63888;fill-opacity:1;fill-rule:nonzero;stroke:none"
             d="m 121.31,63.560001 h 20 V 287.81 h -20 z" /><path
             id="path80"
             style="fill:none;stroke:#000000;stroke-width:1;stroke-linecap:butt;stroke-linejoin:miter;stroke-miterlimit:10;stroke-dasharray:none;stroke-opacity:1"
             d="m 121.31,63.560001 h 20 V 287.81 h -20 z" /></g><g
           transform="scale(3.0062132)"
           id="g82"><text
             id="text86"
             style="font-variant:normal;font-weight:normal;font-size:10px;font-family:Verdana;-inkscape-font-specification:Verdana;writing-mode:lr-tb;fill:#000000;fill-opacity:1;fill-rule:nonzero;stroke:none"
             transform="translate(114.26563,59)"><tspan
               id="tspan84"
               y="0"
               x="0 6.3574219 12.714844 16.352539 22.709961">89.7%</tspan></text>
</g><g
           transform="matrix(3.0062132,0,0,3.0062132,1.5031066,1.5031066)"
           id="g88"><path
             id="path90"
             style="fill:#009c3b;fill-opacity:1;fill-rule:nonzero;stroke:none"
             d="m 182.71001,63.560001 h 19 V 287.81 h -19 z" /><path
             id="path92"
             style="fill:none;stroke:#000000;stroke-width:1;stroke-linecap:butt;stroke-linejoin:miter;stroke-miterlimit:10;stroke-dasharray:none;stroke-opacity:1"
             d="m 182.71001,63.560001 h 19 V 287.81 h -19 z" /></g><g
           transform="scale(3.0062132)"
           id="g94"><text
             id="text98"
             style="font-variant:normal;font-weight:normal;font-size:10px;font-family:Verdana;-inkscape-font-specification:Verdana;writing-mode:lr-tb;fill:#000000;fill-opacity:1;fill-rule:nonzero;stroke:none"
             transform="translate(175.76563,59)"><tspan
               id="tspan96"
               y="0"
               x="0 6.3574219 12.714844 16.352539 22.709961">89.7%</tspan></text>
<text
             id="text102"
             style="font-variant:normal;font-weight:normal;font-size:9px;font-family:Verdana;-inkscape-font-specification:Verdana;writing-mode:lr-tb;fill:#000000;fill-opacity:1;fill-rule:nonzero;stroke:none"
             transform="translate(38.1875,301)"><tspan
               id="tspan100"
               y="0"
               x="0 5.0097656 11.162109 14.950195 22.03418 28.766602 32.853516 38.575195 44.296875 50.018555">LAION-400M</tspan></text>
<text
             id="text106"
             style="font-variant:normal;font-weight:normal;font-size:6px;font-family:Verdana;-inkscape-font-specification:Verdana;writing-mode:lr-tb;fill:#000000;fill-opacity:1;fill-rule:nonzero;stroke:none"
             transform="translate(47.15625,310)"><tspan
               id="tspan104"
               y="0"
               x="0 2.7246094 6.5390625 10.353516 14.167969 20.625 22.734375 27.357422 30.960938 33.325195 36.928711">(100% Data)</tspan></text>
</g><g
           transform="matrix(3.0062132,0,0,3.0062132,1.5031066,1.5031066)"
           id="g108"><path
             id="path110"
             style="fill:#2799f6;fill-opacity:1;fill-rule:nonzero;stroke:none"
             d="M 57,63 H 77 V 287.75 H 57 Z" /><path
             id="path112"
             style="fill:none;stroke:#000000;stroke-width:1;stroke-linecap:butt;stroke-linejoin:miter;stroke-miterlimit:10;stroke-dasharray:none;stroke-opacity:1"
             d="M 57,63 H 77 V 287.75 H 57 Z" /></g><g
           transform="scale(3.0062132)"
           id="g114"><text
             id="text118"
             style="font-variant:normal;font-weight:normal;font-size:10px;font-family:Verdana;-inkscape-font-specification:Verdana;writing-mode:lr-tb;fill:#000000;fill-opacity:1;fill-rule:nonzero;stroke:none"
             transform="translate(50.265625,58)"><tspan
               id="tspan116"
               y="0"
               x="0 6.3574219 12.714844 16.352539 22.709961">89.9%</tspan></text>
<text
             id="text122"
             style="font-variant:normal;font-weight:bold;font-size:9px;font-family:Verdana;-inkscape-font-specification:Verdana-Bold;writing-mode:lr-tb;fill:#000000;fill-opacity:1;fill-rule:nonzero;stroke:none"
             transform="translate(372.46875,301)"><tspan
               id="tspan120"
               y="0"
               x="0 5.8535156 11.865234 14.941406 19.415039 26.885742 32.862305 40.333008 46.744629">FairDeDup</tspan></text>
<text
             id="text126"
             style="font-variant:normal;font-weight:bold;font-size:6px;font-family:Verdana;-inkscape-font-specification:Verdana-Bold;writing-mode:lr-tb;fill:#000000;fill-opacity:1;fill-rule:nonzero;stroke:none"
             transform="translate(378.75,310)"><tspan
               id="tspan124"
               y="0"
               x="0 3.2607422 7.5263672 11.791992 19.423828 21.474609 26.455078 30.462891 33.196289 37.204102">(50% Data)</tspan></text>
</g><g
           transform="matrix(3.0062132,0,0,3.0062132,1.5031066,1.5031066)"
           id="g128"><path
             id="path130"
             style="fill:#000000;fill-opacity:1;fill-rule:nonzero;stroke:none"
             d="m 426.20001,102.23 h 2.34 v 131.73001 h 1.94 L 427.37,241.23 l -3.10999,-7.26999 h 1.94 z" /><path
             id="path132"
             style="fill:none;stroke:#000000;stroke-width:1;stroke-linecap:butt;stroke-linejoin:miter;stroke-miterlimit:10;stroke-dasharray:none;stroke-opacity:1"
             d="m 426.20001,102.23 h 2.34 v 131.73001 h 1.94 L 427.37,241.23 l -3.10999,-7.26999 h 1.94 z" /></g><g
           transform="matrix(0,-3.0062132,3.0062132,0,805.16919,1826.981)"
           id="g134"><text
             id="text138"
             style="font-variant:normal;font-weight:normal;font-size:10px;font-family:Verdana;-inkscape-font-specification:Verdana;writing-mode:lr-tb;fill:#000000;fill-opacity:1;fill-rule:nonzero;stroke:none"
             transform="translate(376.01563,174)"><tspan
               id="tspan136"
               y="0"
               x="0 6.3232422 12.553711 18.881836 24.887695 27.631836 30.375977 34.267578 40.185547 43.701172 49.770508 53.286133 56.801758 64.672852 70.90332 77.133789 83.203125 89.53125 93.798828 97.739258 104.06738 110.39551 113.13965 117.03125">Equality of Oppourtunity</tspan></text>
</g><g
           transform="matrix(3.0062132,0,0,3.0062132,1.5031066,1.5031066)"
           id="g140"><path
             id="path142"
             style="fill:#e6e6e6;fill-opacity:1;fill-rule:nonzero;stroke:none"
             d="m 235.39,38 h 69.78999 V 318 H 235.39 Z" /><path
             id="path144"
             style="fill:#000000;fill-opacity:1;fill-rule:nonzero;stroke:none"
             d="m 292.48999,94.769997 h 3 v 1 h -3 m 6,-1 h 3 v 1 h -3 m 6,-1 h 3 v 1 h -3 m 6,-1 h 3 v 1 h -3 m 6,-1 h 3 v 1 h -3 m 6,-1 h 3 v 1 h -3 m 6,-1 h 3 v 1 h -3 m 6,-1 h 3 v 1 h -3 m 6,-1 h 3 v 1 h -3 m 6,-1 h 3 v 1 h -3 m 6,-1 h 3 v 1 h -3 m 6,-1 h 3 v 1 h -3 m 6,-1 h 3 v 1 h -3 m 6,-1 h 3 v 1 h -3 m 6,-1 h 3 v 1 h -3 m 6,-1 h 3 v 1 h -3 m 6,-1 h 3 v 1 h -3 m 6,-1 h 3 v 1 h -3 m 6,-1 h 3 v 1 h -3 m 6,-1 h 3 v 1 h -3 m 6,-1 h 3 v 1 h -3 m 6,-1 h 2.72 v 1 h -2.72" /><path
             id="path146"
             style="fill:#000000;fill-opacity:1;fill-rule:nonzero;stroke:none"
             d="m 268.00104,220.75 3,0.006 -0.002,1 -3,-0.006 m 6.00208,-0.98744 2.99997,0.006 -0.002,1 -2.99997,-0.006 m 6.00205,-0.98744 3,0.006 -0.002,1 -3,-0.006 m 6.00208,-0.98745 3,0.006 -0.002,1 -3,-0.006 m 6.00205,-0.98744 3,0.006 -0.002,1 -3,-0.006 m 6.00208,-0.98744 3,0.006 -0.002,1 -3,-0.006 m 6.00208,-0.98744 2.99997,0.006 -0.002,1 -2.99997,-0.006 m 6.00205,-0.98744 3,0.006 -0.002,1 -3,-0.006 m 6.00208,-0.98745 2.99997,0.006 -0.002,1 -2.99997,-0.006 m 6.00205,-0.98744 3,0.006 -0.002,1 -3,-0.006 m 6.00208,-0.98744 3,0.006 -0.002,1 -3,-0.006 m 6.00208,-0.98744 2.99997,0.006 -0.002,1 -2.99997,-0.006 m 6.00205,-0.98744 3,0.006 -0.002,1 -3,-0.006 m 6.00208,-0.98745 2.99996,0.006 -0.002,1 -2.99997,-0.006 m 6.00204,-0.98744 3,0.006 -0.002,1 -3,-0.006 m 6.00207,-0.98744 3,0.006 -0.002,1 -3,-0.006 m 6.00207,-0.98744 2.99997,0.006 -0.002,1 -2.99997,-0.006 m 6.00204,-0.98744 3,0.006 -0.002,1 -3,-0.006 m 6.00204,-0.98745 3,0.006 -0.002,1 -3,-0.006 m 6.00207,-0.98744 3,0.006 -0.002,1 -3,-0.006 m 6.00207,-0.98744 3,0.006 -0.002,1 -3,-0.006 m 6.00207,-0.98744 2.99997,0.006 -0.002,1 -2.99997,-0.006" /></g><g
           transform="scale(3.0062132)"
           id="g148"><text
             id="text152"
             style="font-variant:normal;font-weight:normal;font-size:10px;font-family:Verdana;-inkscape-font-specification:Verdana;writing-mode:lr-tb;fill:#000000;fill-opacity:1;fill-rule:nonzero;stroke:none"
             transform="translate(290.46875,19)"><tspan
               id="tspan150"
               y="0"
               x="0 6.5576172 12.514648 16.782227 22.851562 27.294922 34.130859 40.458984 46.52832 50.46875 53.984375 59.243164 66.079102 73.061523 79.384766 85.546875">Zero-Shot FACET </tspan></text>
<text
             id="text156"
             style="font-variant:normal;font-weight:normal;font-size:10px;font-family:Verdana;-inkscape-font-specification:Verdana;writing-mode:lr-tb;fill:#000000;fill-opacity:1;fill-rule:nonzero;stroke:none"
             transform="translate(261.09375,31)"><tspan
               id="tspan154"
               y="0"
               x="0 4.5410156 12.294922 18.251953 24.580078 30.810547 36.767578 41.035156 44.550781 52.255859 55 60.209961 66.44043 72.446289 76.713867 79.458008 83.349609 89.267578 92.783203 95.527344 101.85547 105.37109 112.08008 118.03711 123.24707 129.25293 131.99707 134.74121">(Gender Disparity in Recall </tspan></text>
<text
             id="text160"
             style="font-variant:normal;font-weight:normal;font-size:10px;font-family:TimesNewRomanPSMT;-inkscape-font-specification:TimesNewRomanPSMT;writing-mode:lr-tb;fill:#000000;fill-opacity:1;fill-rule:nonzero;stroke:none"
             transform="translate(399.35059,31)"><tspan
               id="tspan158"
               y="0"
               x="0">↓</tspan></text>
<text
             id="text164"
             style="font-variant:normal;font-weight:normal;font-size:10px;font-family:Verdana;-inkscape-font-specification:Verdana;writing-mode:lr-tb;fill:#000000;fill-opacity:1;fill-rule:nonzero;stroke:none"
             transform="translate(404.35059,31)"><tspan
               id="tspan162"
               y="0"
               x="0">)</tspan></text>
</g><g
           transform="matrix(3.0062132,0,0,3.0062132,1.5031066,1.5031066)"
           id="g166"><path
             id="path168"
             style="fill:#2799f6;fill-opacity:1;fill-rule:nonzero;stroke:none"
             d="m 249,221.25 h 20 v 65.97 h -20 z" /><path
             id="path170"
             style="fill:none;stroke:#000000;stroke-width:1;stroke-linecap:butt;stroke-linejoin:miter;stroke-miterlimit:10;stroke-dasharray:none;stroke-opacity:1"
             d="m 249,221.25 h 20 v 65.97 h -20 z" /></g><g
           transform="scale(3.0062132)"
           id="g172"><text
             id="text176"
             style="font-variant:normal;font-weight:normal;font-size:10px;font-family:Verdana;-inkscape-font-specification:Verdana;writing-mode:lr-tb;fill:#000000;fill-opacity:1;fill-rule:nonzero;stroke:none"
             transform="translate(247.64063,217)"><tspan
               id="tspan174"
               y="0"
               x="0 3.6376953 9.9951172 16.352539">.104</tspan></text>
</g><g
           transform="matrix(3.0062132,0,0,3.0062132,1.5031066,1.5031066)"
           id="g178"><path
             id="path180"
             style="fill:#e63888;fill-opacity:1;fill-rule:nonzero;stroke:none"
             d="m 313,215.87 h 20 v 71.67999 h -20 z" /><path
             id="path182"
             style="fill:none;stroke:#000000;stroke-width:1;stroke-linecap:butt;stroke-linejoin:miter;stroke-miterlimit:10;stroke-dasharray:none;stroke-opacity:1"
             d="m 313,215.87 h 20 v 71.67999 h -20 z" /></g><g
           transform="scale(3.0062132)"
           id="g184"><text
             id="text188"
             style="font-variant:normal;font-weight:normal;font-size:10px;font-family:Verdana;-inkscape-font-specification:Verdana;writing-mode:lr-tb;fill:#000000;fill-opacity:1;fill-rule:nonzero;stroke:none"
             transform="translate(311.64063,212)"><tspan
               id="tspan186"
               y="0"
               x="0 3.6376953 9.9951172 16.352539">.113</tspan></text>
</g><g
           transform="matrix(3.0062132,0,0,3.0062132,1.5031066,1.5031066)"
           id="g190"><path
             id="path192"
             style="fill:#e63888;fill-opacity:1;fill-rule:nonzero;stroke:none"
             d="m 336.62,68 h 20 v 219.47 h -20 z" /><path
             id="path194"
             style="fill:none;stroke:#000000;stroke-width:1;stroke-linecap:butt;stroke-linejoin:miter;stroke-miterlimit:10;stroke-dasharray:none;stroke-opacity:1"
             d="m 336.62,68 h 20 v 219.47 h -20 z" /></g><g
           transform="scale(3.0062132)"
           id="g196"><text
             id="text200"
             style="font-variant:normal;font-weight:normal;font-size:10px;font-family:Verdana;-inkscape-font-specification:Verdana;writing-mode:lr-tb;fill:#000000;fill-opacity:1;fill-rule:nonzero;stroke:none"
             transform="translate(335.64063,64)"><tspan
               id="tspan198"
               y="0"
               x="0 3.6376953 9.9951172 16.352539">.346</tspan></text>
</g><g
           transform="matrix(3.0062132,0,0,3.0062132,1.5031066,1.5031066)"
           id="g202"><path
             id="path204"
             style="fill:#009c3b;fill-opacity:1;fill-rule:nonzero;stroke:none"
             d="m 377,217.75999 h 20 v 69.14 h -20 z" /><path
             id="path206"
             style="fill:none;stroke:#000000;stroke-width:1;stroke-linecap:butt;stroke-linejoin:miter;stroke-miterlimit:10;stroke-dasharray:none;stroke-opacity:1"
             d="m 377,217.75999 h 20 v 69.14 h -20 z" /></g><g
           transform="scale(3.0062132)"
           id="g208"><text
             id="text212"
             style="font-variant:normal;font-weight:normal;font-size:10px;font-family:Verdana;-inkscape-font-specification:Verdana;writing-mode:lr-tb;fill:#000000;fill-opacity:1;fill-rule:nonzero;stroke:none"
             transform="translate(375.64063,214)"><tspan
               id="tspan210"
               y="0"
               x="0 3.6376953 9.9951172 16.352539">.109</tspan></text>
</g><g
           transform="matrix(3.0062132,0,0,3.0062132,1.5031066,1.5031066)"
           id="g214"><path
             id="path216"
             style="fill:#009c3b;fill-opacity:1;fill-rule:nonzero;stroke:none"
             d="m 400.42001,98.449997 h 20 V 287.47 h -20 z" /><path
             id="path218"
             style="fill:none;stroke:#000000;stroke-width:1;stroke-linecap:butt;stroke-linejoin:miter;stroke-miterlimit:10;stroke-dasharray:none;stroke-opacity:1"
             d="m 400.42001,98.449997 h 20 V 287.47 h -20 z" /></g><g
           transform="scale(3.0062132)"
           id="g220"><text
             id="text224"
             style="font-variant:normal;font-weight:normal;font-size:10px;font-family:Verdana;-inkscape-font-specification:Verdana;writing-mode:lr-tb;fill:#000000;fill-opacity:1;fill-rule:nonzero;stroke:none"
             transform="translate(398.64063,94)"><tspan
               id="tspan222"
               y="0"
               x="0 3.6376953 9.9951172 16.352539">.298</tspan></text>
<text
             id="text228"
             style="font-variant:normal;font-weight:normal;font-size:9px;font-family:Verdana;-inkscape-font-specification:Verdana;writing-mode:lr-tb;fill:#000000;fill-opacity:1;fill-rule:nonzero;stroke:none"
             transform="translate(308.59375,301)"><tspan
               id="tspan226"
               y="0"
               x="0 6.1523438 11.513672 20.267578 27.202148 32.563477 39.498047 45.193359">SemDeDup</tspan></text>
<text
             id="text232"
             style="font-variant:normal;font-weight:normal;font-size:6px;font-family:Verdana;-inkscape-font-specification:Verdana;writing-mode:lr-tb;fill:#000000;fill-opacity:1;fill-rule:nonzero;stroke:none"
             transform="translate(316.07813,310)"><tspan
               id="tspan230"
               y="0"
               x="0 2.7246094 6.5390625 10.353516 16.810547 18.919922 23.542969 27.146484 29.510742 33.114258">(50% Data)</tspan></text>
</g><g
           transform="matrix(0,-3.0062132,3.0062132,0,306.9043,2016.4476)"
           id="g234"><text
             id="text238"
             style="font-variant:normal;font-weight:bold;font-size:10px;font-family:Verdana;-inkscape-font-specification:Verdana-Bold;writing-mode:lr-tb;fill:#ffffff;fill-opacity:1;fill-rule:nonzero;stroke:none"
             transform="translate(386,288)"><tspan
               id="tspan236"
               y="0"
               x="0 7.7636719 14.262695 20.90332 25.874023 32.553711 39.545898">Average</tspan></text>
</g><g
           transform="matrix(0,-3.0062132,3.0062132,0,376.73865,2090.8513)"
           id="g240"><text
             id="text244"
             style="font-variant:normal;font-weight:bold;font-size:10px;font-family:Verdana;-inkscape-font-specification:Verdana-Bold;writing-mode:lr-tb;fill:#ffffff;fill-opacity:1;fill-rule:nonzero;stroke:none"
             transform="translate(410,289)"><tspan
               id="tspan242"
               y="0"
               x="0 11.28418 18.149414 23.120117 29.052734 33.608398 38.408203 45.644531 49.0625 55.742188 61.674805">Worst-Class</tspan></text>
</g><g
           transform="matrix(0,-3.0062132,3.0062132,0,115.10793,1824.651)"
           id="g246"><text
             id="text250"
             style="font-variant:normal;font-weight:bold;font-size:10px;font-family:Verdana;-inkscape-font-specification:Verdana-Bold;writing-mode:lr-tb;fill:#ffffff;fill-opacity:1;fill-rule:nonzero;stroke:none"
             transform="translate(323,288)"><tspan
               id="tspan248"
               y="0"
               x="0 7.7636719 14.262695 20.90332 25.874023 32.553711 39.545898">Average</tspan></text>
</g><g
           transform="matrix(0,-3.0062132,3.0062132,0,184.9422,1899.0548)"
           id="g252"><text
             id="text256"
             style="font-variant:normal;font-weight:bold;font-size:10px;font-family:Verdana;-inkscape-font-specification:Verdana-Bold;writing-mode:lr-tb;fill:#ffffff;fill-opacity:1;fill-rule:nonzero;stroke:none"
             transform="translate(347,289)"><tspan
               id="tspan254"
               y="0"
               x="0 11.28418 18.149414 23.120117 29.052734 33.608398 38.408203 45.644531 49.0625 55.742188 61.674805">Worst-Class</tspan></text>
</g><g
           transform="matrix(0,-3.0062132,3.0062132,0,-1.5031066,1700.5847)"
           id="g258"><text
             id="text262"
             style="font-variant:normal;font-weight:bold;font-size:10px;font-family:Verdana;-inkscape-font-specification:Verdana-Bold;writing-mode:lr-tb;fill:#ffffff;fill-opacity:1;fill-rule:nonzero;stroke:none"
             transform="translate(283,287)"><tspan
               id="tspan260"
               y="0"
               x="0 11.28418 18.149414 23.120117 29.052734 33.608398 38.408203 46.518555 51.489258 58.354492 65.478516">Worst-Group</tspan></text>
</g><g
           transform="matrix(3.0062132,0,0,3.0062132,1.5031066,1.5031066)"
           id="g264"><path
             id="path266"
             style="fill:#2799f6;fill-opacity:1;fill-rule:nonzero;stroke:none"
             d="m 272.48999,95.269997 h 20 V 287.46 h -20 z" /><path
             id="path268"
             style="fill:none;stroke:#000000;stroke-width:1;stroke-linecap:butt;stroke-linejoin:miter;stroke-miterlimit:10;stroke-dasharray:none;stroke-opacity:1"
             d="m 272.48999,95.269997 h 20 V 287.46 h -20 z" /></g><g
           transform="scale(3.0062132)"
           id="g270"><text
             id="text274"
             style="font-variant:normal;font-weight:normal;font-size:10px;font-family:Verdana;-inkscape-font-specification:Verdana;writing-mode:lr-tb;fill:#000000;fill-opacity:1;fill-rule:nonzero;stroke:none"
             transform="translate(270.64063,91)"><tspan
               id="tspan272"
               y="0"
               x="0 3.6376953 9.9951172 16.352539">.303</tspan></text>
<text
             id="text278"
             style="font-variant:normal;font-weight:normal;font-size:9px;font-family:Verdana;-inkscape-font-specification:Verdana;writing-mode:lr-tb;fill:#000000;fill-opacity:1;fill-rule:nonzero;stroke:none"
             transform="translate(241.1875,301)"><tspan
               id="tspan276"
               y="0"
               x="0 5.0097656 11.162109 14.950195 22.03418 28.766602 32.853516 38.575195 44.296875 50.018555">LAION-400M</tspan></text>
<text
             id="text282"
             style="font-variant:normal;font-weight:normal;font-size:6px;font-family:Verdana;-inkscape-font-specification:Verdana;writing-mode:lr-tb;fill:#000000;fill-opacity:1;fill-rule:nonzero;stroke:none"
             transform="translate(250.15625,310)"><tspan
               id="tspan280"
               y="0"
               x="0 2.7246094 6.5390625 10.353516 14.167969 20.625 22.734375 27.357422 30.960938 33.325195 36.928711">(100% Data)</tspan></text>
</g><g
           transform="matrix(0,-3.0062132,3.0062132,0,-77.665489,1631.8776)"
           id="g284"><text
             id="text288"
             style="font-variant:normal;font-weight:bold;font-size:10px;font-family:Verdana;-inkscape-font-specification:Verdana-Bold;writing-mode:lr-tb;fill:#ffffff;fill-opacity:1;fill-rule:nonzero;stroke:none"
             transform="translate(259,288)"><tspan
               id="tspan286"
               y="0"
               x="0 7.7636719 14.262695 20.90332 25.874023 32.553711 39.545898">Average</tspan></text>
</g><g
           transform="matrix(0,-3.0062132,3.0062132,0,-7.8161726,1706.2964)"
           id="g290"><text
             id="text294"
             style="font-variant:normal;font-weight:bold;font-size:10px;font-family:Verdana;-inkscape-font-specification:Verdana-Bold;writing-mode:lr-tb;fill:#ffffff;fill-opacity:1;fill-rule:nonzero;stroke:none"
             transform="translate(282,289)"><tspan
               id="tspan292"
               y="0"
               x="0 11.28418 18.149414 23.120117 29.052734 33.608398 38.408203 45.644531 49.0625 55.742188 61.674805">Worst-Class</tspan></text>
</g></g></g></g></svg>